<svg width="210" height="224" viewBox="0 0 210 224" fill="none" xmlns="http://www.w3.org/2000/svg">
<path d="M102.988 104.907H87.115V76.552H105.945C116.182 76.552 121.993 81.424 121.993 90.2347C121.993 99.6427 115.229 104.907 102.97 104.907H102.988ZM105.823 116.163H87.1237V147.411H106.645C119.411 147.411 126.175 141.951 126.175 131.684C126.175 121.417 119.219 116.163 105.823 116.163ZM210 106.307V117.675C200.13 118.683 194.101 126.485 190.523 138.843C186.961 151.153 186.471 166.255 186.848 177.912C187.241 190.045 178.378 201.245 166.399 201.245H43.6188C31.6313 201.245 22.7675 190.045 23.17 177.912C23.5462 166.255 23.0562 151.153 19.495 138.843C15.9075 126.485 9.87 118.683 0 117.675V106.307C9.87 105.299 15.9163 97.496 19.4862 85.1387C23.0562 72.828 23.5463 57.7267 23.1613 46.0693C22.7675 33.936 31.6313 22.736 43.6188 22.736H166.399C178.386 22.736 187.241 33.936 186.848 46.0693C186.471 57.7267 186.961 72.828 190.523 85.1387C194.101 97.496 200.13 105.299 210 106.307ZM140.639 132.599C140.639 119.961 132.3 110.824 119.919 109.377V108.845C129.019 107.268 136.159 98.252 136.159 88.1907C136.159 73.8453 125.545 64.5027 109.366 64.5027H72.9662V159.441H109.55C128.958 159.441 140.639 149.305 140.639 132.599Z" fill="#2A7DA2"/>
</svg>
