<svg width="202" height="216" viewBox="0 0 202 216" fill="none" xmlns="http://www.w3.org/2000/svg">
<g clip-path="url(#clip0_24_14)">
<path d="M188.483 54.0002C187.077 51.3902 185.133 49.1132 182.995 47.7902L108.794 1.98017C104.51 -0.665834 97.5155 -0.665834 93.2398 1.98017L19.0217 47.7902C14.746 50.4272 11.2531 56.9072 11.2531 62.1902V153.81C11.2531 156.456 12.1284 159.39 13.534 162C14.9396 164.61 16.8838 166.887 19.0217 168.21L93.223 214.02C97.4987 216.657 104.501 216.657 108.777 214.02L182.978 168.21C185.116 166.887 187.06 164.61 188.466 162C189.872 159.39 190.738 156.456 190.738 153.81V62.1902C190.764 59.5442 189.897 56.6102 188.483 54.0002ZM101 171.99C68.0067 171.99 41.1659 143.28 41.1659 108C41.1659 72.7202 68.0151 44.0102 101.008 44.0102C111.505 44.0315 121.814 46.9954 130.905 52.6063C139.996 58.2171 147.553 66.2788 152.821 75.9872L126.932 92.0072C124.3 87.1448 120.52 83.1062 115.971 80.295C111.422 77.4837 106.263 75.9983 101.008 75.9872C93.0704 75.9943 85.4594 79.3694 79.8464 85.3715C74.2333 91.3735 71.077 99.512 71.0703 108C71.0815 116.484 74.2386 124.616 79.8493 130.614C85.4601 136.612 93.0663 139.986 101 139.995C106.252 139.983 111.409 138.499 115.958 135.692C120.506 132.884 124.287 128.85 126.923 123.993L152.83 140.013C147.559 149.723 139.999 157.785 130.905 163.396C121.811 169.007 111.499 171.97 101 171.99ZM160.842 111.555H154.193V118.665H147.544V111.555H140.895V104.445H147.544V97.3352H154.193V104.445H160.842V111.555ZM185.773 111.555H179.123V118.665H172.474V111.555H165.825V104.445H172.474V97.3352H179.123V104.445H185.773V111.555Z" fill="#2A7DA2"/>
</g>
<defs>
<clipPath id="clip0_24_14">
<rect width="202" height="216" fill="white"/>
</clipPath>
</defs>
</svg>
