<svg width="214" height="216" viewBox="0 0 214 216" fill="none" xmlns="http://www.w3.org/2000/svg">
<g clip-path="url(#clip0_24_12)">
<path d="M107 0C78.6218 0 51.406 11.3785 31.3396 31.6325C11.2732 51.8864 0 79.3566 0 108C0 136.643 11.2732 164.114 31.3396 184.368C51.406 204.621 78.6218 216 107 216C135.378 216 162.594 204.621 182.66 184.368C202.727 164.114 214 136.643 214 108C214 79.3566 202.727 51.8864 182.66 31.6325C162.594 11.3785 135.378 0 107 0ZM84.0485 64.08C90.106 64.117 96.1053 65.2762 101.748 67.5V78.129C95.6167 74.6902 88.6993 72.9338 81.6856 73.035C77.3188 72.8885 72.9715 73.6855 68.9347 75.3727C64.898 77.0599 61.2651 79.5984 58.2793 82.818C52.0205 90.0223 48.7843 99.402 49.2557 108.972C48.789 118.022 51.8084 126.904 57.6819 133.758C60.4963 136.811 63.9309 139.214 67.7505 140.803C71.5702 142.392 75.6849 143.13 79.8131 142.965C87.5194 143.158 95.1269 141.183 101.784 137.259L101.748 146.979C94.469 150.554 86.4315 152.269 78.3418 151.974C72.9972 152.21 67.6643 151.291 62.7003 149.278C57.7362 147.265 53.2557 144.204 49.5588 140.301C42.1237 131.892 38.2447 120.879 38.7518 109.62C38.4937 103.583 39.4378 97.5544 41.5284 91.8919C43.619 86.2293 46.8135 81.0475 50.9231 76.653C54.9376 72.5054 59.7653 69.249 65.0976 67.0918C70.4299 64.9346 76.1495 63.9241 81.8907 64.125C82.2472 64.1091 82.6039 64.0971 82.9607 64.089C83.3233 64.085 83.6859 64.076 84.0485 64.08ZM136.327 65.475H143.781L138.833 89.343H153.643L158.699 65.475H165.921L160.973 89.343L176.416 89.307L175.079 95.58H159.698L156.024 113.4H172.538L170.968 119.682H154.775L149.604 143.307H142.203L147.259 119.682H132.546L127.598 143.307H120.375L125.324 119.682H109.809L110.977 113.4H126.563L130.139 95.616H113.857L115.087 89.343H131.369L136.327 65.475ZM137.593 95.58L133.75 113.4H148.668L152.439 95.58H137.593Z" fill="#2A7DA2"/>
</g>
<defs>
<clipPath id="clip0_24_12">
<rect width="214" height="216" fill="white"/>
</clipPath>
</defs>
</svg>
