<svg width="218" height="224" viewBox="0 0 218 224" fill="none" xmlns="http://www.w3.org/2000/svg">
<g clip-path="url(#clip0_24_8)">
<path d="M0 0H218V224H0V0ZM200.142 170.576C198.553 160.356 192.076 151.769 172.865 143.761C166.18 140.541 158.749 138.301 156.542 133.121C155.716 130.041 155.588 128.361 156.124 126.541C157.487 120.512 164.436 118.701 169.886 120.381C173.428 121.501 176.698 124.301 178.751 128.781C188.143 122.472 188.143 122.472 194.692 118.281C192.24 114.361 191.022 112.672 189.369 111.001C183.647 104.421 176.026 101.061 163.627 101.351L157.223 102.181C151.083 103.721 145.233 107.081 141.691 111.561C131.336 123.611 134.324 144.611 146.859 153.291C159.258 162.811 177.388 164.901 179.705 173.871C181.885 184.791 171.802 188.291 161.847 187.031C154.48 185.351 150.402 181.561 145.906 174.561L129.283 184.371C131.191 188.851 133.371 190.801 136.641 194.721C152.446 211.111 191.958 210.271 199.052 185.351C199.316 184.511 201.232 178.771 199.724 169.951L200.142 170.576ZM118.547 102.956H98.1273C98.1273 121.044 98.0455 139.02 98.0455 157.136C98.0455 168.635 98.6177 179.191 96.792 182.439C93.7945 188.869 86.0737 188.048 82.5675 186.919C78.9705 185.089 77.1448 182.569 75.0283 178.939C74.4561 177.959 74.0292 177.109 73.8747 177.109L57.2977 187.609C60.0681 193.489 64.1102 198.548 69.324 201.768C77.0902 206.528 87.527 208.068 98.4542 205.548C105.566 203.439 111.698 199.099 114.904 192.379C119.537 183.699 118.556 173.059 118.51 161.149C118.619 141.979 118.51 122.799 118.51 103.479L118.547 102.956Z" fill="#2A7DA2"/>
</g>
<defs>
<clipPath id="clip0_24_8">
<rect width="218" height="224" fill="white"/>
</clipPath>
</defs>
</svg>
