<svg width="29" height="23" viewBox="0 0 29 23" fill="none" xmlns="http://www.w3.org/2000/svg">
<path d="M0.472026 2.80153C-0.157342 2.15986 -0.157342 1.12292 0.472026 0.481252C1.10139 -0.160417 2.12349 -0.160417 2.75285 0.481252L12.4199 10.3373C13.0493 10.979 13.0493 12.021 12.4199 12.6627L2.75285 22.5187C2.12349 23.1604 1.10139 23.1604 0.472026 22.5187C-0.157342 21.8771 -0.157342 20.835 0.472026 20.1933L8.99618 11.4974L0.472026 2.80153ZM12.8882 19.7108H27.3888C28.28 19.7108 29 20.4449 29 21.3535C29 22.2621 28.28 22.9961 27.3888 22.9961H12.8882C11.997 22.9961 11.277 22.2621 11.277 21.3535C11.277 20.4449 11.997 19.7108 12.8882 19.7108Z" fill="#03A9F4"/>
</svg>
