<svg width="204" height="225" viewBox="0 0 204 225" fill="none" xmlns="http://www.w3.org/2000/svg">
<g clip-path="url(#clip0_24_16)">
<path d="M204 35.1562V56.25C204 75.6738 158.328 91.4062 102 91.4062C45.6723 91.4062 0 75.6738 0 56.25V35.1562C0 15.7324 45.6723 0 102 0C158.328 0 204 15.7324 204 35.1562ZM179.046 94.3506C188.518 91.0986 197.215 86.9238 204 81.7822V126.562C204 145.986 158.328 161.719 102 161.719C45.6723 161.719 0 145.986 0 126.562V81.7822C6.78482 86.9678 15.4821 91.0986 24.9536 94.3506C45.3991 101.382 72.6295 105.469 102 105.469C131.371 105.469 158.601 101.382 179.046 94.3506ZM0 152.095C6.78482 157.28 15.4821 161.411 24.9536 164.663C45.3991 171.694 72.6295 175.781 102 175.781C131.371 175.781 158.601 171.694 179.046 164.663C188.518 161.411 197.215 157.236 204 152.095V189.844C204 209.268 158.328 225 102 225C45.6723 225 0 209.268 0 189.844V152.095Z" fill="#2A7DA2"/>
</g>
<defs>
<clipPath id="clip0_24_16">
<rect width="204" height="225" fill="white"/>
</clipPath>
</defs>
</svg>
